<svg width="227" height="40" viewBox="0 0 227 40" fill="none" xmlns="http://www.w3.org/2000/svg">
<path d="M20.7949 40C7.91953 40 0 33.1269 0 20.3101V19.8445C0 6.97705 7.82233 0 20.7949 0C32.2127 0 40.2293 6.3569 40.5694 14.5733V14.7803H32.7957V14.6258C32.3098 10.1293 27.4026 6.45995 20.7463 6.45995C12.8754 6.45995 7.96817 10.9564 7.96817 19.6384V20.5171C7.96817 28.992 12.9239 33.5401 20.7949 33.5401C26.7224 33.5401 32.0668 30.6979 33.0386 24.9611L33.0872 24.8066H19.2401V19.0183H40.5694V20.9302C40.5694 33.333 32.8929 40 20.7949 40Z" fill="#FF3853"/>
<path d="M43.4776 39.1728V0.775604H53.1945L66.1184 24.3925L66.7502 26.0983H66.7987L67.4305 24.3925L80.3543 0.775604H90.0714V39.1728H82.5406V12.8168L82.5891 10.7494L81.9097 12.3512L70.1032 33.437H63.4465L51.6401 12.3512L50.9598 10.7494L51.0082 12.8168V39.1728H43.4776Z" fill="white"/>
<path d="M113.802 40C100.684 40 92.9098 33.0745 92.9098 20.1555V19.793C92.9098 6.92553 100.684 0 113.802 0C113.811 0 128.062 0 128.071 0C141.22 0.0103045 148.935 6.9349 148.935 19.793V20.1555C148.935 33.0604 141.227 39.9841 128.088 40C128.073 40 113.817 40 113.802 40ZM100.878 20.2586C100.878 28.9405 104.407 32.7129 112.323 33.0248C118.885 31.2178 117.893 24.5602 124.553 24.9611C130.279 25.3059 130.246 25.497 134.625 21.7667C136.288 20.3504 137.799 18.5892 138.236 16.3719C139.465 10.1396 134.909 6.46932 128.071 6.45995C128.062 6.45995 113.811 6.45995 113.802 6.45995C105.834 6.45995 100.878 11.008 100.878 19.6899V20.2586Z" fill="white"/>
<path d="M151.767 39.1728V0.775604H171.007C184.465 0.775604 190.685 8.26882 190.685 19.7929V20.0515C190.685 31.3695 184.854 39.1728 171.056 39.1728H151.767ZM159.589 32.7128H169.744C177.906 32.7128 182.716 29.096 182.716 20.31V19.5344C182.716 10.9564 178.101 7.23556 169.744 7.23556H159.589V32.7128Z" fill="white"/>
<path d="M209.849 40C197.362 40 191.969 34.3157 191.727 26.8731H199.403C199.549 30.5939 201.833 33.8501 209.897 33.8501C216.311 33.8501 219.081 31.9897 219.081 28.5789C219.081 25.0126 217.38 23.8239 208.391 22.429C196.148 20.5686 193.038 16.8993 193.038 10.6464C193.038 4.80656 197.605 0 209.12 0C220.781 0 225.786 5.37424 226.32 12.8684H218.935C218.595 9.35363 216.457 6.14989 209.412 6.14989C203.144 6.14989 200.958 8.21734 200.958 10.8009V10.8525C200.958 13.6955 202.415 15.2459 209.801 16.2792C224.23 18.3466 227 22.3775 227 28.4234C227 36.1237 220.878 40 209.849 40Z" fill="white"/>
</svg>
